<svg width="140" height="140" viewBox="0 0 140 140" fill="none" xmlns="http://www.w3.org/2000/svg">
<rect width="140" height="140" rx="70" fill="#FB60C4"/>
<path d="M57.8828 108.185H53.3828V112.833H51.0391V101.458H58.4453V103.357H53.3828V106.294H57.8828V108.185ZM63.375 112.99C62.1354 112.99 61.125 112.609 60.3438 111.849C59.5677 111.088 59.1797 110.075 59.1797 108.81V108.591C59.1797 107.742 59.3438 106.984 59.6719 106.318C60 105.646 60.4635 105.13 61.0625 104.771C61.6667 104.406 62.3542 104.224 63.125 104.224C64.2812 104.224 65.1901 104.588 65.8516 105.318C66.5182 106.047 66.8516 107.081 66.8516 108.419V109.341H61.4688C61.5417 109.893 61.7604 110.336 62.125 110.669C62.4948 111.003 62.9609 111.169 63.5234 111.169C64.3932 111.169 65.0729 110.854 65.5625 110.224L66.6719 111.466C66.3333 111.945 65.875 112.32 65.2969 112.591C64.7188 112.857 64.0781 112.99 63.375 112.99ZM63.1172 106.052C62.6693 106.052 62.3047 106.203 62.0234 106.505C61.7474 106.807 61.5703 107.24 61.4922 107.802H64.6328V107.622C64.6224 107.122 64.487 106.737 64.2266 106.466C63.9661 106.19 63.5964 106.052 63.1172 106.052ZM70.8438 102.302V104.38H72.2891V106.036H70.8438V110.255C70.8438 110.568 70.9036 110.792 71.0234 110.927C71.1432 111.062 71.3724 111.13 71.7109 111.13C71.9609 111.13 72.1823 111.112 72.375 111.075V112.786C71.9323 112.922 71.4766 112.99 71.0078 112.99C69.4245 112.99 68.6172 112.19 68.5859 110.591V106.036H67.3516V104.38H68.5859V102.302H70.8438ZM77.0625 111.169C77.4792 111.169 77.8177 111.055 78.0781 110.825C78.3385 110.596 78.474 110.292 78.4844 109.911H80.6016C80.5964 110.484 80.4401 111.01 80.1328 111.49C79.8255 111.963 79.4036 112.333 78.8672 112.599C78.3359 112.859 77.7474 112.99 77.1016 112.99C75.8932 112.99 74.9401 112.607 74.2422 111.841C73.5443 111.07 73.1953 110.008 73.1953 108.654V108.505C73.1953 107.203 73.5417 106.164 74.2344 105.388C74.9271 104.612 75.8776 104.224 77.0859 104.224C78.1432 104.224 78.9896 104.526 79.625 105.13C80.2656 105.729 80.5911 106.529 80.6016 107.529H78.4844C78.474 107.091 78.3385 106.737 78.0781 106.466C77.8177 106.19 77.474 106.052 77.0469 106.052C76.5208 106.052 76.1224 106.245 75.8516 106.63C75.5859 107.01 75.4531 107.63 75.4531 108.49V108.724C75.4531 109.594 75.5859 110.219 75.8516 110.599C76.1172 110.979 76.5208 111.169 77.0625 111.169ZM84.0938 105.302C84.6927 104.583 85.4453 104.224 86.3516 104.224C88.1849 104.224 89.1146 105.289 89.1406 107.419V112.833H86.8828V107.482C86.8828 106.997 86.7786 106.641 86.5703 106.411C86.362 106.177 86.0156 106.06 85.5312 106.06C84.8698 106.06 84.3906 106.315 84.0938 106.825V112.833H81.8359V100.833H84.0938V105.302Z" fill="white"/>
<circle cx="55.4165" cy="68.0834" r="22.75" fill="white"/>
<path d="M49 50.3334C49 47.572 51.2386 45.3334 54 45.3334H102.333C105.095 45.3334 107.333 47.572 107.333 50.3334V57.6397C107.333 60.1444 105.48 62.2626 102.998 62.5954L54.6643 69.0741C51.6657 69.4761 49 67.1438 49 64.1184V50.3334Z" fill="white"/>
<rect x="68.8335" y="36" width="10.5" height="15.1667" rx="3" fill="#FB60C4"/>
<rect x="72.3335" y="25.5" width="3.5" height="15.1667" rx="1.75" fill="white"/>
<rect x="84.7358" y="28.3956" width="3.5" height="15.1667" rx="1.75" transform="rotate(35 84.7358 28.3956)" fill="white"/>
<rect x="60.6667" y="30.4031" width="3.5" height="15.1667" rx="1.75" transform="rotate(-35 60.6667 30.4031)" fill="white"/>
</svg>
