<svg width="18" height="18" viewBox="0 0 18 18" fill="none" xmlns="http://www.w3.org/2000/svg">
<path d="M10.0088 5.98819L10.0088 5.98814L10.0094 5.98758L10.0132 5.98415L10.0299 5.96909L10.0965 5.90942C10.1546 5.85764 10.2378 5.78392 10.3369 5.69759C10.5376 5.52284 10.7932 5.30528 11.0331 5.11504C12.1259 4.24831 13.4473 4.31947 14.3163 5.18812C15.1882 6.05977 15.2813 7.64423 14.2745 8.73485C13.5577 9.51148 12.2327 10.7834 10.9763 11.8596C10.3483 12.3976 9.76541 12.8625 9.30345 13.1845C9.18751 13.2653 9.08644 13.332 9.0001 13.3858C8.91346 13.3319 8.81201 13.265 8.69561 13.184C8.23319 12.8621 7.64993 12.3973 7.02161 11.8594C5.76455 10.7832 4.44016 9.51168 3.72533 8.73585C2.71902 7.64369 2.81186 6.0586 3.68266 5.18811C4.55158 4.31951 5.87574 4.24828 6.96867 5.11504C7.20856 5.30529 7.46417 5.52285 7.6648 5.69759C7.76391 5.78392 7.84715 5.85765 7.9052 5.90943L7.97181 5.96909L7.98851 5.98415L7.99231 5.98759L7.99292 5.98815L7.99298 5.9882L7.99302 5.98824L7.99307 5.98828L9.00087 6.90269L10.0087 5.98828L10.0087 5.98823L10.0088 5.98819ZM8.69882 13.5498C8.69904 13.5493 8.70637 13.5461 8.72013 13.5416C8.70548 13.548 8.6986 13.5503 8.69882 13.5498ZM9.28002 13.5413C9.29367 13.5457 9.30092 13.5489 9.30113 13.5493C9.30134 13.5498 9.29452 13.5476 9.28002 13.5413Z" fill="#FF6499" stroke="#FF6499" stroke-width="3"/>
</svg>
