<svg width="40" height="40" viewBox="0 0 40 40" fill="none" xmlns="http://www.w3.org/2000/svg">
<path d="M20.1317 3.75C12.1425 3.75 5.5748 9.855 4.93441 17.6388H3.33353C2.82706 17.6388 2.37065 17.9445 2.17775 18.4128C1.98485 18.8812 2.0936 19.4195 2.45313 19.7762L5.25281 22.554C5.74016 23.0375 6.52628 23.0375 7.01363 22.554L9.81331 19.7762C10.1728 19.4195 10.2816 18.8812 10.0887 18.4128C9.8958 17.9445 9.43938 17.6388 8.93291 17.6388H7.44483C8.0777 11.2528 13.5081 6.25 20.1317 6.25C24.7475 6.25 28.788 8.68075 31.0262 12.3213C31.3877 12.9094 32.1575 13.0931 32.7457 12.7315C33.3338 12.37 33.5175 11.6001 33.1558 11.012C30.4787 6.65712 25.6457 3.75 20.1317 3.75Z" fill="#FF9ABD"/>
<path d="M34.7351 17.4443C34.2483 16.9629 33.4648 16.9629 32.9778 17.4443L30.1675 20.2221C29.8068 20.5784 29.6973 21.1171 29.8898 21.5861C30.0825 22.0549 30.5391 22.3611 31.0461 22.3611H32.5446C31.9091 28.7436 26.4598 33.7499 19.8046 33.7499C15.1671 33.7499 11.1097 31.3171 8.86324 27.6768C8.50067 27.0893 7.73052 26.9069 7.14302 27.2696C6.55554 27.6321 6.37319 28.4023 6.73574 28.9898C9.42342 33.3449 14.2734 36.2499 19.8046 36.2499C27.8176 36.2499 34.4125 30.1486 35.0551 22.3611H36.667C37.1738 22.3611 37.6305 22.0549 37.8231 21.5861C38.0158 21.1171 37.9061 20.5784 37.5456 20.2221L34.7351 17.4443Z" fill="#FF9ABD"/>
</svg>
